<?xml version="1.0" encoding="UTF-8" standalone="no"?>
<!-- Created with Inkscape (http://www.inkscape.org/) -->

<svg
   width="24"
   height="24"
   viewBox="0 0 6.3500001 6.3500001"
   version="1.1"
   id="svg1"
   xml:space="preserve"
   sodipodi:docname="ic_check_reopen_white_24dp.svg"
   inkscape:version="1.3.2 (091e20e, 2023-11-25, custom)"
   inkscape:export-filename="ic_axe_24dp.svg"
   inkscape:export-xdpi="49.200001"
   inkscape:export-ydpi="49.200001"
   xmlns:inkscape="http://www.inkscape.org/namespaces/inkscape"
   xmlns:sodipodi="http://sodipodi.sourceforge.net/DTD/sodipodi-0.dtd"
   xmlns="http://www.w3.org/2000/svg"
   xmlns:svg="http://www.w3.org/2000/svg"><sodipodi:namedview
     id="namedview1"
     pagecolor="#505050"
     bordercolor="#ffffff"
     borderopacity="1"
     inkscape:showpageshadow="0"
     inkscape:pageopacity="0"
     inkscape:pagecheckerboard="1"
     inkscape:deskcolor="#505050"
     inkscape:document-units="px"
     inkscape:zoom="10.718743"
     inkscape:cx="-12.688055"
     inkscape:cy="17.912548"
     inkscape:window-width="2400"
     inkscape:window-height="1262"
     inkscape:window-x="-8"
     inkscape:window-y="-8"
     inkscape:window-maximized="1"
     inkscape:current-layer="layer1" /><defs
     id="defs1" /><g
     inkscape:label="Calque 1"
     inkscape:groupmode="layer"
     id="layer1"><g
       id="g11"
       transform="matrix(0.95520005,-0.08263999,0.08163709,0.96693436,0.22666046,0.46237121)"><path
         d="m 4.0208348,3.3914862 -0.362769,0.232544 c 0.264333,0.3159223 0.507967,0.6277894 0.736389,1.1079427 0.109079,0.2389544 0.20595,0.4857769 0.277503,0.7487915 0.107133,0.00191 0.208524,-0.019003 0.312125,-0.050126 0.09109,-0.023103 0.174028,-0.05885 0.249081,-0.1069702 -0.02759,-0.070564 -0.0575,-0.1309031 -0.08733,-0.1912028 C 4.9093908,4.6398033 4.5804568,4.127301 4.2141078,3.6384997 4.1477078,3.5486937 4.0792228,3.4687836 4.0208378,3.3914862 Z"
         style="fill:#80cc28;fill-opacity:1;stroke:#80cc28;stroke-width:0.42511;stroke-dasharray:none"
         id="path17" /><path
         id="path14"
         style="fill:none;stroke:#80cc28;stroke-width:0.42511;stroke-dasharray:none"
         d="m 2.4268158,-0.01389633 c -0.01572,0.00194 -0.03143,0.00649 -0.04651,0.01395299847 L 1.5999918,0.51785447 0.02902778,0.66926647 c -0.03304,0.00353 -0.058,0.019171 -0.08527,0.045475 -0.01475,0.018285 -0.02386,0.059392 -0.01809,0.082166 0.07894,0.42595823 0.236818,0.83672553 0.467155,1.20974533 0.248622,0.387773 0.553691,0.7127536 0.93637702,0.9792684 0.008,0.012509 0.02849,0.016876 0.03876,0.01912 0.02053,0.00449 0.03097,0.00681 0.05374,0.00103 0.03304,-0.00353 0.06052,-0.029845 0.07752,-0.058394 l 0.688847,-1.1828736 c 0.126405,0.3072739 0.267636,0.5961418 0.441833,0.8816 0.281988,0.4811102 0.554243,0.8098036 0.802535,1.100708 0.280372,0.3409396 0.518125,0.6292694 0.748792,1.0991577 0.18479,0.3845712 0.319942,0.8012302 0.381888,1.2557374 0.0013,0.043302 0.03767,0.073259 0.07648,0.092501 0.04106,0.00898 0.07986,0.02823 0.120923,0.037207 0.102645,0.022444 0.197064,0.032121 0.306441,0.023771 0.284831,-0.023762 0.48972,-0.1726594 0.594279,-0.2573487 0.02149,-0.049078 0.0306,-0.090185 0.0088,-0.137976 -0.05871,-0.1741658 -0.130046,-0.3401768 -0.209289,-0.5188314 l -0.0083,-0.012402 C 5.4088188,5.2333456 5.3730888,5.1501075 5.3294588,5.0545258 5.0827518,4.5596199 4.7585948,4.0263903 4.3739618,3.5228363 4.1163628,3.176121 3.9400938,2.9975614 3.7822668,2.8339894 3.6083988,2.6453999 3.4769258,2.5093619 3.2866888,2.1988861 3.0942078,1.8986748 2.9392068,1.5742213 2.8195348,1.2361541 l 0.25063,-0.1601969 c 0.05003,-0.03208 0.06549,-0.10403143 0.03566,-0.16433113 l -0.561206,-0.8759155 c -0.02406,-0.037527 -0.07067,-0.055432 -0.117822,-0.049609 z"
         sodipodi:nodetypes="cccccccccccccccccsccccccccccccccccc" /><path
         style="fill:none;fill-opacity:1;stroke:#80cc28;stroke-width:0.42511;stroke-linecap:butt;stroke-linejoin:round;stroke-dasharray:none;stroke-opacity:1;paint-order:stroke markers fill"
         d="M 2.271992,1.5014899 C 2.296672,1.4953199 2.7142018,1.3044682 2.7142018,1.3044682"
         id="path11"
         sodipodi:nodetypes="cc" /></g></g></svg>
